<svg xmlns="http://www.w3.org/2000/svg" viewBox="0 0 512 512">
<!--
  Maskable icon — full-bleed background, no rounded corners.
  All bowl geometry sits within the centre-80% safe zone (x/y 51–461).
  The outer marble area provides context outside the safe zone.
-->
<defs>

  <radialGradient id="bgGradM" cx="50%" cy="50%" r="70%">
    <stop offset="0%"   stop-color="#161A20"/>
    <stop offset="62%"  stop-color="#0E1116"/>
    <stop offset="100%" stop-color="#070809"/>
  </radialGradient>

  <radialGradient id="bronzeRimM" cx="36%" cy="30%" r="72%">
    <stop offset="0%"   stop-color="#EAC454"/>
    <stop offset="18%"  stop-color="#C49828"/>
    <stop offset="44%"  stop-color="#8C6518"/>
    <stop offset="76%"  stop-color="#5A4010"/>
    <stop offset="100%" stop-color="#3C2A08"/>
  </radialGradient>

  <radialGradient id="bowlGlowM" cx="50%" cy="50%" r="50%">
    <stop offset="0%"   stop-color="#F8C840" stop-opacity="0.28"/>
    <stop offset="32%"  stop-color="#F0A820" stop-opacity="0.10"/>
    <stop offset="68%"  stop-color="#C07818" stop-opacity="0.03"/>
    <stop offset="100%" stop-color="#904010" stop-opacity="0"/>
  </radialGradient>

  <radialGradient id="jadeOrbM" cx="32%" cy="28%" r="72%">
    <stop offset="0%"   stop-color="#D8FFF2"/>
    <stop offset="18%"  stop-color="#62D4BA"/>
    <stop offset="52%"  stop-color="#1C8262"/>
    <stop offset="100%" stop-color="#083828"/>
  </radialGradient>

  <radialGradient id="amberCoreM" cx="50%" cy="50%" r="50%">
    <stop offset="0%"   stop-color="#FFFFFF"/>
    <stop offset="22%"  stop-color="#FFF2A8"/>
    <stop offset="58%"  stop-color="#F5A828"/>
    <stop offset="100%" stop-color="#C05010" stop-opacity="0"/>
  </radialGradient>

  <filter id="bowlShadowM" x="-12%" y="-12%" width="124%" height="124%">
    <feGaussianBlur in="SourceGraphic" stdDeviation="9"/>
  </filter>

  <filter id="etchGlowM" x="-4%" y="-4%" width="108%" height="108%">
    <feGaussianBlur in="SourceGraphic" stdDeviation="1.1" result="b"/>
    <feMerge><feMergeNode in="b"/><feMergeNode in="SourceGraphic"/></feMerge>
  </filter>

  <filter id="orbGlowM" x="-280%" y="-280%" width="660%" height="660%">
    <feGaussianBlur in="SourceAlpha" stdDeviation="14" result="b1"/>
    <feGaussianBlur in="SourceAlpha" stdDeviation="5"  result="b2"/>
    <feFlood flood-color="#F5B428" flood-opacity="0.80" result="c1"/>
    <feFlood flood-color="#FFFCE0" flood-opacity="0.60" result="c2"/>
    <feComposite in="c1" in2="b1" operator="in" result="g1"/>
    <feComposite in="c2" in2="b2" operator="in" result="g2"/>
    <feMerge>
      <feMergeNode in="g1"/>
      <feMergeNode in="g1"/>
      <feMergeNode in="g2"/>
      <feMergeNode in="SourceGraphic"/>
    </feMerge>
  </filter>

</defs>

<!-- Full-bleed background -->
<rect width="512" height="512" fill="url(#bgGradM)"/>

<!-- Marble veining -->
<path d="M 14,92  Q 108,60 172,126 Q 255,198 370,152 Q 444,120 504,162"
      fill="none" stroke="#DDA77B" stroke-width="1.5"
      stroke-linecap="round" stroke-opacity="0.095"/>
<path d="M 40,26  Q 94,84 142,72  Q 208,56 274,110 Q 314,138 384,106"
      fill="none" stroke="#DDA77B" stroke-width="1.0"
      stroke-linecap="round" stroke-opacity="0.065"/>
<path d="M 8,320  Q 84,284 158,322 Q 252,372 342,304 Q 428,246 510,288"
      fill="none" stroke="#DDA77B" stroke-width="1.2"
      stroke-linecap="round" stroke-opacity="0.075"/>
<path d="M 24,208 Q 98,178 166,220 Q 252,278 354,243 Q 432,216 514,254"
      fill="none" stroke="#2A5E38" stroke-width="1.0"
      stroke-linecap="round" stroke-opacity="0.065"/>
<path d="M 408,24 Q 464,90 494,168 Q 514,248 492,368"
      fill="none" stroke="#1E4A2C" stroke-width="1.2"
      stroke-linecap="round" stroke-opacity="0.055"/>

<!-- Bowl drop shadow -->
<circle cx="256" cy="264" r="205"
        fill="black" opacity="0.50" filter="url(#bowlShadowM)"/>

<!-- Bronze rim -->
<circle cx="256" cy="256" r="200" fill="url(#bronzeRimM)"/>
<circle cx="256" cy="256" r="186" fill="none"
        stroke="#000000" stroke-width="9" stroke-opacity="0.50"/>
<circle cx="256" cy="256" r="185" fill="none"
        stroke="#F2D472" stroke-width="1.2" stroke-opacity="0.52"/>

<!-- Ring layers (identical to main icon) -->
<circle cx="256" cy="256" r="183" fill="#0B1D13"/>
<circle cx="256" cy="256" r="169" fill="#7C5614"/>
<circle cx="256" cy="256" r="160" fill="#0F2A1A"/>
<circle cx="256" cy="256" r="143" fill="#9C7222"/>
<circle cx="256" cy="256" r="134" fill="#153522"/>
<circle cx="256" cy="256" r="114" fill="#BC8C2A"/>
<circle cx="256" cy="256" r="105" fill="#1A452A"/>
<circle cx="256" cy="256" r="83"  fill="#D6A232"/>
<circle cx="256" cy="256" r="74"  fill="#215238"/>
<circle cx="256" cy="256" r="52"  fill="#ECBA42"/>
<circle cx="256" cy="256" r="43"  fill="#286248"/>
<circle cx="256" cy="256" r="26"  fill="#FAC852"/>
<circle cx="256" cy="256" r="17"  fill="#2E7258"/>

<!-- Ring edge etching -->
<g fill="none" stroke="#E8C870" stroke-width="0.7"
   stroke-opacity="0.58" filter="url(#etchGlowM)">
  <circle cx="256" cy="256" r="169"/>
  <circle cx="256" cy="256" r="160"/>
  <circle cx="256" cy="256" r="143"/>
  <circle cx="256" cy="256" r="134"/>
  <circle cx="256" cy="256" r="114"/>
  <circle cx="256" cy="256" r="105"/>
  <circle cx="256" cy="256" r="83"/>
  <circle cx="256" cy="256" r="74"/>
  <circle cx="256" cy="256" r="52"/>
  <circle cx="256" cy="256" r="43"/>
  <circle cx="256" cy="256" r="26"/>
  <circle cx="256" cy="256" r="17"/>
</g>

<!-- Bowl ambient glow -->
<circle cx="256" cy="256" r="183" fill="url(#bowlGlowM)"/>

<!-- Central jade orb -->
<circle cx="256" cy="256" r="19"
        fill="#F0C038" opacity="0.85" filter="url(#orbGlowM)"/>
<circle cx="256" cy="256" r="17" fill="url(#jadeOrbM)"/>
<circle cx="256" cy="256" r="9"  fill="url(#amberCoreM)"/>
<ellipse cx="252" cy="251" rx="3.5" ry="2.5"
         fill="white" opacity="0.90"/>

</svg>
